# Blender v2.79 (sub 0) OBJ File: 'Low-Poly_Models.blend'
# www.blender.org
mtllib Low-Poly_Models.mtl
o Icosphere
v 0.613283 -0.563062 -3.915460
v -0.223451 -0.119759 -3.078098
v 0.823837 0.423781 -4.843454
v 0.420322 0.992369 -4.170425
v -0.138441 -0.411215 -3.397281
v -0.060455 -0.534242 -4.185193
v 1.262460 -0.144173 -4.081831
v 0.397958 -0.137393 -2.942549
v 1.116271 -0.087860 -3.322907
v -0.683347 -0.119758 -3.711091
v -0.216025 -0.113359 -4.787519
v -0.616662 -0.139536 -4.350587
v 1.035583 -0.087252 -4.732020
v 0.528393 -0.114684 -4.951637
v 0.810939 0.469907 -3.221055
v -0.240374 0.623328 -3.244817
v -0.571841 0.480892 -4.197899
v 1.169224 0.477377 -4.315754
v 0.581208 0.908741 -3.570943
v -0.138623 1.020792 -3.623295
v -0.098079 0.687456 -4.563376
vn 0.5646 -0.8080 0.1687
vn -0.0997 -0.9846 0.1439
vn 0.0277 0.7717 -0.6354
vn 0.5616 0.8267 -0.0354
vn 0.4699 0.7928 -0.3881
vn -0.2788 0.9013 -0.3316
vn -0.5649 0.7697 -0.2973
vn -0.8646 0.4444 0.2343
vn 0.1461 0.9844 0.0981
vn 0.0530 0.6815 0.7299
vn 0.0771 0.6459 0.7595
vn 0.7597 0.5992 0.2527
vn 0.9445 0.0182 -0.3280
vn 0.8071 0.2145 -0.5501
vn -0.1989 0.2968 -0.9340
vn -0.2054 0.2917 -0.9342
vn -0.6607 0.2910 -0.6920
vn -0.9895 0.0976 -0.1062
vn -0.8925 0.3722 0.2548
vn -0.2027 0.2100 0.9565
vn 0.0370 0.3957 0.9176
vn 0.8618 0.4197 0.2849
vn 0.3987 -0.0346 -0.9164
vn -0.7264 0.2133 -0.6533
vn -0.8039 0.1127 0.5840
vn -0.6074 -0.6605 0.4413
vn 0.4611 0.0912 0.8827
vn 0.9631 0.2085 0.1701
vn 0.2223 -0.8880 -0.4025
vn 0.1224 -0.9072 -0.4026
vn -0.1221 -0.8281 -0.5471
vn -0.4288 -0.7888 -0.4404
vn -0.5716 -0.8198 -0.0342
vn -0.5071 -0.8578 0.0838
vn 0.4816 -0.8424 -0.2418
vn -0.1613 -0.7498 0.6417
vn 0.1060 -0.9022 0.4182
vn 0.2900 -0.8516 0.4368
usemtl Material.004
s off
f 9//1 1//1 7//1
f 1//2 5//2 6//2
f 3//3 21//3 4//3
f 19//4 18//4 4//4
f 18//5 3//5 4//5
f 21//6 20//6 4//6
f 21//7 17//7 20//7
f 17//8 16//8 20//8
f 20//9 19//9 4//9
f 20//10 16//10 19//10
f 16//11 15//11 19//11
f 15//12 18//12 19//12
f 7//13 13//13 18//13
f 13//14 3//14 18//14
f 14//15 21//15 3//15
f 14//16 11//16 21//16
f 11//17 17//17 21//17
f 12//18 10//18 17//18
f 10//19 16//19 17//19
f 2//20 8//20 16//20
f 8//21 15//21 16//21
f 9//22 18//22 15//22
f 13//23 14//23 3//23
f 11//24 12//24 17//24
f 10//25 2//25 16//25
f 10//26 5//26 2//26
f 8//27 9//27 15//27
f 9//28 7//28 18//28
f 1//29 14//29 13//29
f 1//30 6//30 14//30
f 6//31 11//31 14//31
f 6//32 12//32 11//32
f 6//33 10//33 12//33
f 6//34 5//34 10//34
f 7//35 1//35 13//35
f 5//36 8//36 2//36
f 5//37 1//37 8//37
f 1//38 9//38 8//38
o Sphere
v -1.697971 1.928907 -1.706015
v -0.562366 0.756245 -2.624079
v -1.001255 1.559455 -2.086642
v 0.082556 0.748783 -2.156623
v -0.668489 0.209164 -2.674481
v -1.000847 -0.181376 -2.516552
v -1.170307 -0.641640 -1.657400
v 0.314832 0.954154 -1.525897
v 0.046980 0.130493 -2.138220
v -0.159961 -0.351505 -1.752444
v -0.501756 -0.582095 -1.207373
v 0.467287 0.221443 -1.481165
v 0.125726 1.197300 -1.045077
v 0.552273 0.547219 -1.086742
v 0.318045 -0.105099 -0.726425
v 0.327488 0.247250 -0.213518
v -0.103027 1.256604 -0.428075
v 0.287216 0.802561 -0.192468
v -0.500383 -0.293198 0.110997
v -0.309101 0.428611 0.498379
v -0.315428 0.091873 0.381128
v -0.779981 1.297681 0.308224
v -1.131567 1.556652 0.077291
v -1.213294 0.970571 0.683357
v -1.700664 1.392211 0.369643
v -1.838871 0.198077 0.875915
v -1.776854 -0.143159 0.684550
v -0.935915 -0.624096 -0.427655
v -1.270339 1.893015 -1.467942
v -1.412351 1.710623 -0.602015
v -1.977245 0.987884 0.664084
v -2.389179 -0.311274 0.582730
v -2.813638 -0.037653 0.558587
v -1.302231 -0.691873 -0.804658
v -2.694073 1.057361 0.174849
v -2.994174 0.638709 0.313220
v -2.736129 -0.354777 0.159431
v -2.073891 -0.530392 -0.259778
v -3.252330 0.113781 -0.077404
v -2.750734 1.489337 -1.131370
v -3.308447 0.788687 -1.307712
v -3.205196 -0.150951 -0.629374
v -3.328296 0.572296 -1.663249
v -3.101978 1.064462 -1.819953
v -2.635990 -0.354487 -1.628370
v -1.922386 1.877669 -1.148563
v -2.235996 1.764252 -1.803425
v -2.993884 0.635155 -2.186782
v -2.979850 0.244051 -2.091229
v -2.223069 1.454999 -2.300897
v -1.787750 0.189226 -2.717323
v -1.991943 -0.289461 -2.290056
v -2.025689 -0.622050 -1.472279
v -1.410483 1.331223 -2.522306
v -1.781322 0.747036 -2.779056
vn 0.1162 0.3369 -0.9344
vn 0.1253 0.0669 -0.9899
vn 0.3573 0.6464 -0.6742
vn 0.4493 0.6533 -0.6094
vn 0.4882 0.8391 -0.2400
vn 0.9069 0.1650 -0.3877
vn 0.8447 -0.0644 -0.5314
vn 0.7027 -0.6931 -0.1609
vn 0.8544 0.5140 0.0761
vn 0.8201 0.5664 0.0814
vn 0.9488 -0.3115 0.0528
vn 0.9616 0.0596 0.2680
vn 0.4127 -0.8925 0.1817
vn 0.6053 -0.6612 0.4431
vn 0.2889 0.9261 0.2425
vn 0.7488 0.0292 0.6622
vn 0.6893 -0.2497 0.6800
vn 0.3166 0.9449 0.0833
vn 0.4100 0.8505 0.3295
vn 0.4079 0.4005 0.8205
vn 0.2315 0.0547 0.9713
vn 0.1203 0.7467 0.6542
vn -0.0193 -0.9229 0.3845
vn -0.0069 0.5918 0.8061
vn -0.1356 0.9527 0.2720
vn 0.2018 -0.9268 0.3166
vn 0.0842 0.9722 0.2186
vn -0.3446 0.1864 0.9201
vn -0.0102 -0.4905 0.8714
vn -0.3476 0.9166 0.1972
vn -0.1580 -0.9851 0.0682
vn -0.8247 -0.0151 0.5653
vn -0.6518 -0.7040 0.2820
vn -0.3993 0.8652 0.3034
vn -0.3792 -0.9252 -0.0136
vn -0.9987 0.0088 0.0504
vn -0.8134 -0.5176 -0.2653
vn -0.8225 -0.1627 -0.5449
vn -0.8336 0.2223 -0.5058
vn -0.5564 0.6991 -0.4491
vn -0.4819 -0.6923 -0.5371
vn -0.0368 -0.9972 -0.0644
vn -0.4411 0.2968 -0.8470
vn -0.0417 0.7991 -0.5998
vn -0.1615 0.4812 -0.8616
vn -0.1030 -0.9199 -0.3784
vn 0.0400 -0.1104 -0.9931
vn 0.0422 -0.4052 -0.9133
vn -0.0123 -0.8804 -0.4741
vn 0.2755 0.8911 -0.3606
vn 0.2119 -0.8782 -0.4287
vn 0.2467 -0.9383 -0.2423
vn 0.5855 -0.0578 -0.8086
vn 0.4203 -0.6701 -0.6118
vn 0.1510 -0.9880 0.0309
vn 0.5222 0.7354 -0.4318
vn 0.7087 -0.6006 -0.3702
vn 0.4893 0.8405 -0.2326
vn 0.9243 0.1715 -0.3408
vn 0.2769 -0.4312 0.8587
vn 0.5184 -0.8544 -0.0363
vn 0.4274 0.9012 0.0718
vn 0.9539 -0.2553 0.1578
vn 0.6935 0.6948 0.1903
vn 0.4159 -0.8854 0.2076
vn 0.6032 -0.6315 0.4872
vn 0.5420 0.7040 0.4590
vn 0.5417 0.4490 0.7106
vn -0.7892 0.5720 0.2234
vn 0.2536 -0.6342 0.7304
vn 0.1026 -0.8824 0.4591
vn 0.1180 0.6769 0.7265
vn -0.0186 0.2560 0.9665
vn -0.3569 0.6970 0.6219
vn -0.0476 -0.9740 0.2213
vn -0.2347 -0.2819 0.9303
vn -0.4347 0.5479 0.7148
vn -0.3853 0.2221 0.8957
vn -0.1823 0.8798 0.4390
vn -0.4945 -0.7248 0.4798
vn -0.1279 -0.9705 0.2045
vn -0.9301 0.3024 0.2083
vn -0.7620 -0.5709 0.3056
vn -0.2879 0.9573 -0.0279
vn -0.2171 -0.9740 0.0650
vn -0.9853 -0.1708 -0.0022
vn -0.3933 -0.9187 -0.0369
vn -0.7844 0.6200 0.0176
vn -0.9147 0.3659 -0.1717
vn -0.7213 -0.6326 -0.2821
vn -0.4299 -0.0944 -0.8979
vn -0.6187 0.7694 -0.1591
vn -0.5738 0.4437 -0.6884
vn 0.0266 0.9944 0.1021
vn -0.2918 -0.8818 -0.3706
vn -0.4212 -0.4973 -0.7585
vn -0.1611 0.8363 -0.5241
vn -0.1051 -0.6369 -0.7638
vn 0.1325 0.8214 -0.5548
vn 0.5963 -0.0418 -0.8017
vn 0.4229 -0.6252 -0.6560
vn 0.1157 -0.9925 -0.0406
vn 0.2419 -0.3231 0.9149
vn -0.7623 0.6141 0.2046
vn -0.4232 0.9048 0.0460
vn -0.4611 -0.2262 -0.8581
usemtl Material.001
s off
f 76//39 75//39 23//39
f 76//40 23//40 26//40
f 75//41 24//41 23//41
f 23//42 24//42 25//42
f 24//43 50//43 29//43
f 25//44 29//44 33//44
f 25//45 33//45 30//45
f 33//46 36//46 31//46
f 34//47 39//47 29//47
f 29//48 39//48 35//48
f 35//49 36//49 33//49
f 39//50 37//50 35//50
f 32//51 36//51 49//51
f 36//52 37//52 40//52
f 38//53 50//53 51//53
f 39//54 41//54 37//54
f 37//55 41//55 42//55
f 51//56 44//56 38//56
f 44//57 43//57 38//57
f 43//58 45//58 41//58
f 45//59 47//59 41//59
f 43//60 44//60 46//60
f 49//61 48//61 59//61
f 45//62 46//62 52//62
f 44//63 51//63 46//63
f 48//64 53//64 59//64
f 51//65 50//65 67//65
f 47//66 52//66 54//66
f 47//67 53//67 48//67
f 46//68 51//68 56//68
f 59//69 74//69 55//69
f 57//70 60//70 54//70
f 60//71 63//71 54//71
f 67//72 61//72 56//72
f 58//73 63//73 74//73
f 62//74 64//74 60//74
f 64//75 70//75 63//75
f 64//76 69//76 70//76
f 65//77 69//77 64//77
f 68//78 71//78 65//78
f 66//79 70//79 73//79
f 55//80 74//80 28//80
f 71//81 76//81 69//81
f 71//82 22//82 75//82
f 71//83 75//83 76//83
f 73//84 28//84 74//84
f 72//85 76//85 26//85
f 27//86 72//86 26//86
f 73//87 27//87 28//87
f 24//88 22//88 50//88
f 27//89 31//89 28//89
f 28//90 31//90 32//90
f 30//91 23//91 25//91
f 27//92 30//92 31//92
f 55//93 32//93 49//93
f 25//94 24//94 29//94
f 30//95 33//95 31//95
f 29//96 50//96 34//96
f 33//97 29//97 35//97
f 48//98 41//98 47//98
f 31//99 36//99 32//99
f 34//100 50//100 38//100
f 36//101 35//101 37//101
f 34//102 38//102 39//102
f 49//103 36//103 40//103
f 40//104 37//104 42//104
f 38//105 43//105 39//105
f 39//106 43//106 41//106
f 62//107 56//107 61//107
f 40//108 42//108 48//108
f 49//109 40//109 48//109
f 43//110 46//110 45//110
f 45//111 52//111 47//111
f 52//112 46//112 56//112
f 49//113 59//113 55//113
f 47//114 54//114 53//114
f 52//115 56//115 57//115
f 52//116 57//116 54//116
f 51//117 67//117 56//117
f 53//118 54//118 58//118
f 59//119 53//119 58//119
f 57//120 62//120 60//120
f 58//121 54//121 63//121
f 68//122 67//122 22//122
f 59//123 58//123 74//123
f 60//124 64//124 63//124
f 74//125 63//125 66//125
f 61//126 65//126 62//126
f 62//127 65//127 64//127
f 63//128 70//128 66//128
f 72//129 69//129 76//129
f 61//130 68//130 65//130
f 65//131 71//131 69//131
f 67//132 50//132 22//132
f 74//133 66//133 73//133
f 73//134 70//134 72//134
f 68//135 22//135 71//135
f 73//136 72//136 27//136
f 75//137 22//137 24//137
f 30//138 26//138 23//138
f 27//139 26//139 30//139
f 55//140 28//140 32//140
f 48//141 42//141 41//141
f 62//142 57//142 56//142
f 68//143 61//143 67//143
f 72//144 70//144 69//144
o Icosphere.001
v -4.750278 -0.690775 -0.122442
v -4.063768 -0.245305 -1.250450
v -4.329318 0.128878 -0.807535
v -4.437426 -0.959761 -0.694882
v -4.344035 -0.614608 0.000519
v -3.774343 -0.621794 -0.417021
v -5.055633 -0.603002 -0.505251
v -4.927343 -0.616721 -1.087533
v -4.042233 -0.572933 -1.311461
v -3.836472 -0.210033 -0.903175
v -4.125310 -0.034072 -0.278755
v -4.744629 0.110116 -0.337836
v -4.891283 -0.090636 -0.952411
vn -0.1087 0.7263 -0.6788
vn 0.5706 0.8206 0.0327
vn 0.4699 0.7928 -0.3881
vn -0.3020 0.9251 -0.2301
vn 0.2017 0.9552 0.2165
vn 0.9350 -0.2026 -0.2911
vn 0.8190 0.1566 -0.5520
vn -0.3091 0.1544 -0.9384
vn -0.2490 0.2569 -0.9338
vn -0.9687 0.1220 -0.2163
vn -0.9205 0.3789 0.0959
vn -0.3229 0.2479 0.9134
vn 0.0138 0.4292 0.9031
vn 0.8535 0.4464 0.2690
vn -0.7492 0.1769 0.6382
vn 0.5847 0.1621 0.7949
vn -0.1057 -0.8105 -0.5762
vn -0.5192 -0.8495 -0.0944
vn -0.4553 -0.8754 0.1625
vn 0.5098 -0.8371 -0.1984
vn 0.0348 -0.8970 0.4406
vn 0.2796 -0.8744 0.3965
usemtl Material.003
s off
f 78//145 89//145 79//145
f 87//146 86//146 79//146
f 86//147 78//147 79//147
f 89//148 88//148 79//148
f 88//149 87//149 79//149
f 82//150 85//150 86//150
f 85//151 78//151 86//151
f 85//152 89//152 78//152
f 85//153 84//153 89//153
f 84//154 83//154 89//154
f 83//155 88//155 89//155
f 77//156 81//156 88//156
f 81//157 87//157 88//157
f 82//158 86//158 87//158
f 83//159 77//159 88//159
f 81//160 82//160 87//160
f 80//161 84//161 85//161
f 80//162 83//162 84//162
f 80//163 77//163 83//163
f 82//164 80//164 85//164
f 77//165 80//165 81//165
f 80//166 82//166 81//166
o Sphere.001
v -3.349290 0.288375 1.616772
v -2.967717 0.843235 1.002790
v -3.192222 -0.210205 2.347826
v -3.863498 0.736396 1.745270
v -3.716654 0.115541 2.376314
v -3.424119 -0.108051 3.190787
v -4.029674 0.658216 2.415214
v -3.913280 0.831771 3.006173
v -3.705721 1.505798 1.705589
v -3.861487 1.450359 2.310010
v -3.231458 0.533126 3.680150
v -3.528130 1.458945 2.982159
v -3.089717 2.088374 1.980096
v -2.527780 2.065412 2.139810
v -2.579708 1.562381 3.225679
v -2.700854 1.573964 0.730916
v -2.355797 1.203009 3.596024
v -1.954084 1.725831 2.382733
v -2.090758 1.124565 3.609249
v -2.029963 1.451125 1.353186
v -1.701316 0.814128 3.087208
v -1.680509 0.759830 1.844034
v -1.840685 0.310655 2.069368
v -2.275181 1.095803 0.929708
v -2.311593 -0.156495 3.083467
v -2.605389 0.021983 1.823232
vn -0.0658 -0.7196 -0.6912
vn -0.1493 -0.8315 -0.5350
vn -0.5482 -0.4220 -0.7221
vn -0.6332 -0.0560 -0.7720
vn -0.8436 -0.4677 -0.2638
vn -0.8714 -0.3969 0.2882
vn -0.9557 0.1842 -0.2294
vn -0.9602 0.1749 -0.2178
vn -0.9670 0.2219 0.1253
vn -0.7340 -0.2587 0.6279
vn -0.7812 0.4944 0.3811
vn -0.4945 0.7387 -0.4581
vn -0.2106 0.8667 0.4522
vn -0.0091 0.1363 0.9906
vn 0.1350 0.9303 -0.3411
vn 0.4186 0.8163 0.3982
vn 0.5805 0.7440 -0.3308
vn 0.2643 -0.4048 0.8754
vn 0.8163 0.4775 0.3250
vn 0.4047 0.8757 -0.2635
vn 0.6131 -0.3881 0.6881
vn 0.9461 -0.3224 0.0299
vn 0.0491 -0.6153 0.7868
vn 0.4439 -0.6499 -0.6170
vn 0.0325 -0.3589 -0.9328
vn 0.1634 -0.6602 -0.7331
vn -0.0325 -0.9932 0.1114
vn -0.5288 -0.8476 -0.0428
vn -0.8488 -0.5016 0.1672
vn -0.6960 0.1061 -0.7101
vn -0.2588 0.6103 0.7487
vn -0.5638 0.3744 0.7362
vn -0.6593 0.7450 -0.1016
vn -0.5464 0.7959 0.2608
vn 0.9222 0.3513 -0.1617
vn -0.3105 0.5068 0.8042
vn -0.0812 0.9058 0.4158
vn 0.1940 0.7600 0.6202
vn 0.3083 0.8401 0.4462
vn 0.9628 0.2703 0.0043
vn -0.6474 -0.6132 -0.4526
vn 0.8372 -0.5270 0.1460
vn 0.8455 0.0500 -0.5316
vn 0.6180 -0.5174 -0.5920
vn 0.4057 -0.8871 -0.2202
vn 0.2136 -0.9591 -0.1856
vn 0.6745 0.3248 -0.6630
vn -0.4965 -0.7631 -0.4138
usemtl Material.002
s off
f 115//167 90//167 91//167
f 115//168 92//168 90//168
f 90//169 93//169 91//169
f 91//170 93//170 105//170
f 93//171 94//171 96//171
f 96//172 95//172 97//172
f 98//173 93//173 99//173
f 93//174 96//174 99//174
f 99//175 96//175 97//175
f 95//176 100//176 97//176
f 99//177 97//177 101//177
f 105//178 98//178 102//178
f 102//179 101//179 104//179
f 100//180 108//180 106//180
f 102//181 103//181 105//181
f 104//182 108//182 103//182
f 103//183 107//183 105//183
f 108//184 100//184 114//184
f 107//185 108//185 110//185
f 105//186 107//186 109//186
f 108//187 114//187 110//187
f 111//188 110//188 112//188
f 100//189 95//189 114//189
f 113//190 112//190 115//190
f 113//191 91//191 105//191
f 113//192 115//192 91//192
f 114//193 95//193 92//193
f 92//194 95//194 94//194
f 94//195 95//195 96//195
f 93//196 98//196 105//196
f 106//197 104//197 101//197
f 100//198 101//198 97//198
f 98//199 99//199 102//199
f 99//200 101//200 102//200
f 111//201 109//201 107//201
f 100//202 106//202 101//202
f 102//203 104//203 103//203
f 104//204 106//204 108//204
f 103//205 108//205 107//205
f 107//206 110//206 111//206
f 90//207 94//207 93//207
f 110//208 114//208 112//208
f 109//209 111//209 113//209
f 111//210 112//210 113//210
f 114//211 115//211 112//211
f 114//212 92//212 115//212
f 113//213 105//213 109//213
f 90//214 92//214 94//214
