# Blender v2.79 (sub 0) OBJ File: 'start.blend'
# www.blender.org
mtllib startBanner.mtl
o Start_Cube
v 0.118322 0.000000 -5.118321
v 0.118322 0.000000 -4.881679
v -0.118322 0.000000 -4.881679
v -0.118322 0.000000 -5.118321
v 0.118322 6.956517 -5.118321
v 0.118322 6.956517 -4.881678
v -0.118322 6.956517 -4.881679
v -0.118322 6.956517 -5.118321
v 0.118322 0.000000 4.881678
v 0.118322 0.000000 5.118321
v -0.118322 0.000000 5.118321
v -0.118322 0.000000 4.881678
v 0.118322 6.956517 4.881678
v 0.118322 6.956517 5.118321
v -0.118322 6.956517 5.118321
v -0.118322 6.956517 4.881678
v 0.118322 3.942026 -5.118321
v 0.118322 6.260865 -5.118321
v 0.118322 3.942026 -4.881679
v 0.118322 6.260865 -4.881678
v -0.118322 3.942026 -4.881679
v -0.118322 6.260865 -4.881679
v -0.118322 3.942026 -5.118321
v -0.118322 6.260865 -5.118321
v 0.118322 3.942026 4.881678
v 0.118322 6.260865 4.881678
v 0.118322 3.942026 5.118321
v 0.118322 6.260865 5.118321
v -0.118322 3.942026 5.118321
v -0.118322 6.260865 5.118321
v -0.118322 3.942026 4.881678
v -0.118322 6.260865 4.881678
v -0.118322 6.260865 -4.881679
v -0.118322 3.942026 -4.881679
v 0.118322 6.260865 -4.881678
v 0.118322 3.942026 -4.881679
v -0.118322 3.942026 -4.881679
v -0.118322 6.260865 -4.881679
v 0.118322 6.260865 -4.881678
v 0.118322 3.942026 -4.881679
v 0.118322 6.260865 2.929007
v 0.118322 6.260865 0.976336
v 0.118322 6.260865 -0.976336
v 0.118322 6.260865 -2.929007
v 0.118322 3.942026 2.929007
v 0.118322 3.942026 0.976336
v 0.118322 3.942026 -0.976336
v 0.118322 3.942026 -2.929007
v -0.118322 6.260865 -2.929007
v -0.118322 6.260865 -0.976336
v -0.118322 6.260865 0.976336
v -0.118322 6.260865 2.929007
v -0.118322 3.942026 -2.929007
v -0.118322 3.942026 -0.976336
v -0.118322 3.942026 0.976336
v -0.118322 3.942026 2.929007
v -0.118322 6.260865 -5.118321
v -0.118322 6.260865 -4.881679
v -0.000000 6.314380 4.881678
v 0.000000 3.820222 4.881678
v -0.000000 6.314380 -4.881678
v 0.000000 3.820222 -4.881678
vn 0.0000 -1.0000 0.0000
vn 0.0000 1.0000 0.0000
vn 1.0000 -0.0000 0.0000
vn -0.0000 -0.0000 1.0000
vn -1.0000 0.0000 -0.0000
vn 0.0000 0.0000 -1.0000
usemtl Material
s off
f 2//1 4//1 1//1
f 5//2 7//2 6//2
f 5//3 20//3 18//3
f 6//4 33//4 20//4
f 7//5 24//5 33//5
f 1//6 23//6 17//6
f 10//1 12//1 9//1
f 16//2 14//2 13//2
f 13//3 28//3 26//3
f 14//4 30//4 28//4
f 15//5 32//5 30//5
f 9//6 31//6 25//6
f 18//6 8//6 5//6
f 17//6 24//6 18//6
f 34//5 4//5 3//5
f 33//5 23//5 34//5
f 19//4 3//4 2//4
f 17//3 2//3 1//3
f 18//3 19//3 17//3
f 13//6 32//6 16//6
f 25//6 32//6 26//6
f 29//5 12//5 11//5
f 30//5 31//5 29//5
f 27//4 11//4 10//4
f 28//4 29//4 27//4
f 25//3 10//3 9//3
f 26//3 27//3 25//3
f 19//4 35//4 36//4
f 33//4 35//4 22//4
f 34//4 22//4 21//4
f 19//4 21//4 36//4
f 36//4 37//4 40//4
f 22//4 39//4 38//4
f 36//4 39//4 40//4
f 21//4 38//4 37//4
f 35//4 21//4 36//4
f 24//4 58//4 57//4
f 60//3 61//3 59//3
f 2//1 3//1 4//1
f 5//2 8//2 7//2
f 5//3 6//3 20//3
f 6//4 7//4 33//4
f 7//5 8//5 24//5
f 1//6 4//6 23//6
f 10//1 11//1 12//1
f 16//2 15//2 14//2
f 13//3 14//3 28//3
f 14//4 15//4 30//4
f 15//5 16//5 32//5
f 9//6 12//6 31//6
f 18//6 24//6 8//6
f 17//6 23//6 24//6
f 34//5 23//5 4//5
f 33//5 24//5 23//5
f 19//4 34//4 3//4
f 17//3 19//3 2//3
f 18//3 20//3 19//3
f 13//6 26//6 32//6
f 25//6 31//6 32//6
f 29//5 31//5 12//5
f 30//5 32//5 31//5
f 27//4 29//4 11//4
f 28//4 30//4 29//4
f 25//3 27//3 10//3
f 26//3 28//3 27//3
f 19//4 20//4 35//4
f 33//4 20//4 35//4
f 34//4 33//4 22//4
f 19//4 34//4 21//4
f 36//4 21//4 37//4
f 22//4 35//4 39//4
f 36//4 35//4 39//4
f 21//4 22//4 38//4
f 35//4 22//4 21//4
f 24//4 33//4 58//4
f 60//3 62//3 61//3
l 46 55
l 45 56
